<?xml version="1.0" encoding="UTF-8" standalone="no"?>
<!DOCTYPE svg PUBLIC "-//W3C//DTD SVG 1.1//EN" "http://www.w3.org/Graphics/SVG/1.1/DTD/svg11.dtd">
<svg width="100%" height="100%" viewBox="0 0 980 980" version="1.1" xmlns="http://www.w3.org/2000/svg" xmlns:xlink="http://www.w3.org/1999/xlink" xml:space="preserve" xmlns:serif="http://www.serif.com/" style="fill-rule:evenodd;clip-rule:evenodd;stroke-linecap:round;stroke-linejoin:round;stroke-miterlimit:1.5;">
    <g id="g210" transform="matrix(0.1,0,0,-0.1,0,980)">
        <g id="g4" transform="matrix(1.28389,0,0,1.32732,-1241.04,-2269.41)">
            <path id="path2" d="M4535,7694C4488,7682 4487,7680 4521,7657C4541,7643 4571,7605 4596,7560C4650,7460 4702,7420 4773,7420L4825,7420L4787,7445C4767,7459 4750,7474 4750,7478C4750,7483 4727,7514 4700,7549C4640,7622 4664,7616 4750,7535C4799,7489 4865,7452 4878,7464C4880,7467 4879,7486 4875,7507C4867,7554 4795,7627 4724,7663C4674,7688 4577,7704 4535,7694Z" style="fill:rgb(62,100,99);fill-rule:nonzero;"/>
        </g>
        <g id="g8" transform="matrix(1.28389,0,0,1.32732,-1241.04,-2269.41)">
            <path id="path6" d="M5150,7691C5032,7666 4899,7539 4924,7475C4933,7451 4993,7480 5055,7539C5083,7565 5117,7593 5130,7600C5153,7612 5153,7610 5124,7579C5107,7560 5079,7525 5062,7501C5045,7477 5018,7448 5003,7438L4975,7420L5023,7420C5105,7420 5156,7462 5214,7577C5229,7607 5255,7639 5276,7654C5295,7667 5308,7680 5303,7683C5287,7693 5184,7698 5150,7691Z" style="fill:rgb(62,100,99);fill-rule:nonzero;"/>
        </g>
        <g id="g12" transform="matrix(1.28389,0,0,1.32732,-1241.04,-2269.41)">
            <path id="path10" d="M4253,7625C4177,7604 4128,7576 4091,7535C4047,7485 4053,7465 4110,7466C4141,7467 4179,7480 4233,7509C4325,7557 4387,7567 4300,7519C4270,7503 4234,7478 4220,7465C4206,7452 4176,7433 4152,7422L4109,7403L4139,7390C4216,7359 4299,7389 4388,7480C4428,7520 4465,7548 4497,7560L4545,7578L4485,7605C4412,7638 4326,7646 4253,7625Z" style="fill:rgb(62,100,99);fill-rule:nonzero;"/>
        </g>
        <g id="g16" transform="matrix(1.28389,0,0,1.32732,-1241.04,-2269.41)">
            <path id="path14" d="M5369,7627C5344,7620 5309,7605 5291,7594L5259,7573L5300,7561C5327,7553 5362,7528 5405,7486C5440,7451 5489,7413 5513,7401C5561,7378 5625,7374 5665,7392L5690,7403L5648,7422C5625,7432 5588,7456 5566,7474C5543,7492 5507,7517 5485,7528C5454,7545 5450,7549 5467,7550C5479,7550 5524,7532 5567,7509C5621,7480 5659,7467 5690,7466C5752,7464 5755,7488 5698,7544C5623,7618 5473,7656 5369,7627Z" style="fill:rgb(62,100,99);fill-rule:nonzero;"/>
        </g>
        <g id="g20" transform="matrix(1.28389,0,0,1.32732,-1241.04,-2269.41)">
            <path id="path18" d="M4474,7396C4464,7356 4487,7251 4520,7183C4575,7072 4705,6976 4792,6982C4829,6985 4835,6988 4832,7005C4827,7035 4779,7092 4728,7125C4676,7160 4631,7198 4610,7225C4593,7247 4598,7244 4660,7202C4679,7189 4723,7165 4757,7150C4791,7134 4831,7110 4845,7096C4859,7082 4872,7070 4874,7070C4880,7070 4863,7167 4853,7185C4824,7236 4742,7290 4652,7316C4575,7338 4526,7364 4501,7396L4481,7422L4474,7396Z" style="fill:rgb(62,100,99);fill-rule:nonzero;"/>
        </g>
        <g id="g24" transform="matrix(1.28389,0,0,1.32732,-1241.04,-2269.41)">
            <path id="path22" d="M5311,7413C5309,7389 5229,7341 5143,7314C5007,7271 4930,7199 4930,7114L4930,7071L4954,7095C4967,7108 5016,7137 5061,7160C5107,7183 5152,7207 5160,7214C5196,7245 5202,7240 5170,7205C5151,7185 5109,7150 5078,7129C4997,7074 4944,6998 4976,6986C5060,6954 5217,7056 5280,7184C5318,7261 5339,7368 5323,7402C5316,7415 5311,7419 5311,7413Z" style="fill:rgb(62,100,99);fill-rule:nonzero;"/>
        </g>
        <g id="g28" transform="matrix(1.28389,0,0,1.32732,-1241.04,-2269.41)">
            <path id="path26" d="M3852,7402C3843,7396 3846,7390 3864,7382C3878,7376 3902,7345 3920,7312C3964,7230 3988,7209 4047,7203C4084,7200 4091,7201 4078,7210C4056,7223 3964,7344 3984,7333C3992,7329 4017,7308 4039,7287C4073,7256 4117,7230 4136,7230C4138,7230 4140,7242 4140,7257C4140,7294 4049,7381 3994,7398C3947,7412 3871,7414 3852,7402Z" style="fill:rgb(62,100,99);fill-rule:nonzero;"/>
        </g>
        <g id="g32" transform="matrix(1.28389,0,0,1.32732,-1241.04,-2269.41)">
            <path id="path30" d="M5800,7397C5750,7381 5660,7291 5660,7257C5660,7241 5666,7230 5673,7230C5690,7230 5756,7278 5789,7314C5803,7328 5818,7340 5823,7340C5832,7340 5796,7292 5744,7235C5711,7199 5715,7191 5763,7198C5800,7204 5853,7256 5885,7321C5899,7349 5922,7376 5936,7382C5992,7408 5874,7420 5800,7397Z" style="fill:rgb(62,100,99);fill-rule:nonzero;"/>
        </g>
        <g id="g36" transform="matrix(1.28389,0,0,1.32732,-1241.04,-2269.41)">
            <path id="path34" d="M4173,7270C4185,7154 4249,7062 4350,7010C4373,6998 4404,6990 4418,6992C4470,6998 4439,7045 4315,7144C4295,7160 4282,7175 4285,7178C4287,7181 4298,7176 4307,7167C4317,7159 4348,7142 4375,7130C4403,7118 4438,7097 4454,7082L4483,7055L4477,7095C4465,7167 4409,7219 4307,7248C4273,7258 4231,7279 4207,7300L4167,7334L4173,7270Z" style="fill:rgb(62,100,99);fill-rule:nonzero;"/>
        </g>
        <g id="g40" transform="matrix(1.28389,0,0,1.32732,-1241.04,-2269.41)">
            <path id="path38" d="M5589,7297C5568,7279 5527,7258 5493,7248C5390,7218 5320,7150 5320,7078C5320,7057 5320,7057 5348,7083C5363,7097 5393,7116 5415,7126C5437,7135 5468,7151 5483,7162C5528,7194 5525,7175 5479,7139C5359,7042 5329,6998 5381,6992C5444,6985 5552,7066 5594,7153C5615,7196 5641,7331 5629,7330C5627,7329 5609,7315 5589,7297Z" style="fill:rgb(62,100,99);fill-rule:nonzero;"/>
        </g>
        <g id="g44" transform="matrix(1.28389,0,0,1.32732,-1241.04,-2269.41)">
            <path id="path42" d="M3660,7239C3622,7224 3562,7160 3549,7122C3536,7083 3541,7074 3567,7088C3577,7093 3609,7101 3638,7105C3692,7112 3750,7148 3750,7175C3750,7184 3736,7183 3693,7168C3614,7142 3607,7150 3676,7185C3742,7218 3760,7250 3713,7249C3698,7249 3674,7244 3660,7239Z" style="fill:rgb(62,100,99);fill-rule:nonzero;"/>
        </g>
        <g id="g48" transform="matrix(1.28389,0,0,1.32732,-1241.04,-2269.41)">
            <path id="path46" d="M6062,7233C6064,7223 6091,7202 6124,7185C6193,7150 6186,7142 6107,7168C6045,7189 6032,7180 6073,7143C6100,7118 6122,7110 6180,7103C6205,7100 6231,7093 6238,7087C6258,7071 6263,7086 6251,7122C6238,7162 6177,7224 6137,7239C6092,7256 6058,7253 6062,7233Z" style="fill:rgb(62,100,99);fill-rule:nonzero;"/>
        </g>
        <g id="g52" transform="matrix(1.28389,0,0,1.32732,-1241.04,-2269.41)">
            <path id="path50" d="M3793,7120C3732,7107 3686,7084 3638,7039L3595,7001L3639,7000C3667,7000 3711,6987 3760,6965C3864,6918 3934,6916 3982,6960C4009,6983 4011,6988 3994,6984C3982,6981 3955,6984 3934,6990C3912,6997 3866,7011 3830,7021L3765,7040L3850,7034C3985,7025 4030,7030 4030,7054C4030,7100 3888,7139 3793,7120Z" style="fill:rgb(62,100,99);fill-rule:nonzero;"/>
        </g>
        <g id="g56" transform="matrix(1.28389,0,0,1.32732,-1241.04,-2269.41)">
            <path id="path54" d="M5889,7120C5818,7108 5770,7077 5770,7045C5770,7031 5854,7021 5892,7030C5916,7035 5958,7039 5985,7039L6035,7038L5970,7020C5934,7010 5888,6997 5866,6990C5845,6984 5818,6981 5806,6984C5789,6988 5792,6983 5819,6958C5851,6930 5856,6928 5919,6932C5967,6935 6002,6945 6050,6968C6092,6989 6129,7000 6158,7000L6201,7000L6178,7023C6099,7104 5996,7139 5889,7120Z" style="fill:rgb(62,100,99);fill-rule:nonzero;"/>
        </g>
        <g id="g60" transform="matrix(1.28389,0,0,1.32732,-1241.04,-2269.41)">
            <path id="path58" d="M4060,6964C4060,6961 4074,6932 4090,6901C4199,6697 4398,6578 4635,6576C4738,6575 4785,6589 4824,6629L4852,6658L4818,6683C4750,6734 4662,6760 4556,6760C4511,6760 4360,6798 4360,6810C4360,6814 4381,6813 4408,6808C4434,6803 4518,6802 4595,6806C4725,6812 4767,6808 4822,6785C4850,6774 4833,6814 4788,6865C4695,6971 4558,6993 4331,6939C4249,6920 4233,6919 4177,6930C4143,6936 4103,6948 4088,6956C4072,6964 4060,6968 4060,6964Z" style="fill:rgb(62,100,99);fill-rule:nonzero;"/>
        </g>
        <g id="g64" transform="matrix(1.28389,0,0,1.32732,-1241.04,-2269.41)">
            <path id="path62" d="M5167,6960C5105,6944 5055,6913 5012,6865C4978,6826 4953,6780 4966,6780C4968,6780 4988,6787 5011,6796C5045,6810 5075,6812 5193,6806C5271,6803 5359,6804 5388,6808C5416,6813 5440,6814 5440,6810C5440,6797 5289,6762 5205,6755C5107,6748 5058,6735 5011,6706C4951,6668 4946,6657 4978,6627C5060,6549 5279,6558 5455,6647C5535,6688 5577,6722 5637,6793C5684,6849 5747,6960 5732,6960C5727,6960 5705,6953 5684,6944C5633,6922 5522,6922 5445,6944C5373,6964 5220,6973 5167,6960Z" style="fill:rgb(62,100,99);fill-rule:nonzero;"/>
        </g>
        <g id="g68" transform="matrix(1.28389,0,0,1.32732,-1241.04,-2269.41)">
            <path id="path66" d="M3535,6940C3470,6915 3382,6836 3348,6774C3321,6724 3296,6620 3311,6620C3315,6620 3322,6625 3326,6631C3337,6649 3412,6680 3445,6680C3498,6680 3593,6710 3628,6737C3666,6766 3700,6816 3700,6843C3700,6861 3698,6861 3668,6842C3650,6831 3606,6814 3570,6805C3535,6796 3493,6782 3477,6773C3461,6765 3446,6761 3444,6763C3438,6769 3495,6805 3569,6840C3621,6865 3680,6918 3680,6940C3680,6950 3643,6960 3610,6959C3596,6959 3562,6950 3535,6940Z" style="fill:rgb(62,100,99);fill-rule:nonzero;"/>
        </g>
        <g id="g72" transform="matrix(1.28389,0,0,1.32732,-1241.04,-2269.41)">
            <path id="path70" d="M6133,6953C6096,6939 6156,6878 6254,6829C6298,6807 6339,6784 6344,6779C6364,6761 6342,6761 6303,6780C6280,6791 6241,6804 6215,6810C6162,6822 6139,6832 6116,6856C6102,6869 6100,6869 6100,6856C6100,6831 6120,6786 6143,6762C6184,6718 6245,6696 6381,6675C6402,6672 6434,6658 6454,6645C6474,6631 6492,6620 6494,6620C6504,6620 6475,6731 6455,6770C6396,6887 6218,6988 6133,6953Z" style="fill:rgb(62,100,99);fill-rule:nonzero;"/>
        </g>
        <g id="g76" transform="matrix(1.28389,0,0,1.32732,-1241.04,-2269.41)">
            <path id="path74" d="M3843,6841C3788,6822 3736,6787 3680,6730C3646,6695 3631,6674 3556,6558C3517,6498 3458,6448 3403,6428C3385,6421 3370,6413 3370,6409C3370,6405 3407,6392 3452,6380C3544,6355 3664,6351 3745,6369C3837,6391 3955,6456 4032,6528C4109,6601 4139,6653 4140,6714L4140,6753L4095,6747C4036,6739 3955,6700 3910,6659C3833,6588 3697,6500 3684,6513C3682,6515 3700,6531 3725,6549C3749,6567 3796,6611 3827,6648C3919,6754 3970,6799 4012,6812C4059,6826 4052,6834 3982,6849C3914,6863 3905,6863 3843,6841Z" style="fill:rgb(62,100,99);fill-rule:nonzero;"/>
        </g>
        <g id="g80" transform="matrix(1.28389,0,0,1.32732,-1241.04,-2269.41)">
            <path id="path78" d="M5808,6848C5781,6842 5760,6834 5760,6830C5760,6826 5777,6815 5798,6807C5843,6789 5892,6745 5956,6666C6009,6599 6040,6570 6088,6539C6146,6502 6114,6506 6044,6545C6007,6565 5949,6606 5916,6636C5845,6700 5774,6737 5708,6746L5660,6753L5660,6709C5661,6637 5714,6563 5822,6481C5975,6366 6177,6328 6356,6381C6396,6393 6430,6406 6430,6409C6430,6413 6414,6422 6395,6429C6339,6449 6268,6513 6230,6576C6152,6709 6066,6798 5979,6834C5930,6854 5862,6860 5808,6848Z" style="fill:rgb(62,100,99);fill-rule:nonzero;"/>
        </g>
        <g id="g84" transform="matrix(1.28389,0,0,1.32732,-1241.04,-2269.41)">
            <path id="path82" d="M3225,6577C3208,6569 3187,6551 3178,6538L3161,6512L3193,6519C3211,6522 3257,6523 3295,6520C3369,6514 3362,6510 3250,6495C3205,6489 3160,6467 3160,6451C3160,6447 3171,6438 3185,6432C3271,6393 3427,6456 3475,6549L3488,6575L3431,6576C3400,6576 3348,6579 3315,6583C3272,6588 3246,6587 3225,6577Z" style="fill:rgb(62,100,99);fill-rule:nonzero;"/>
        </g>
        <g id="g88" transform="matrix(1.28389,0,0,1.32732,-1241.04,-2269.41)">
            <path id="path86" d="M6430,6579C6411,6573 6376,6570 6353,6573C6329,6575 6310,6574 6310,6569C6310,6564 6334,6535 6363,6506C6434,6432 6529,6403 6609,6431C6668,6452 6633,6485 6541,6496C6516,6499 6484,6504 6470,6508C6435,6517 6565,6527 6608,6518C6640,6512 6641,6513 6627,6533C6597,6579 6502,6601 6430,6579Z" style="fill:rgb(62,100,99);fill-rule:nonzero;"/>
        </g>
        <g id="g92" transform="matrix(1.28389,0,0,1.32732,-1241.04,-2269.41)">
            <path id="path90" d="M4233,6500C4193,6489 4135,6469 4105,6455C3948,6386 3738,6207 3620,6042L3558,5955L3563,5755C3576,5330 3657,4985 3820,4661C3936,4429 4138,4186 4330,4046C4386,4005 4397,3992 4407,3952C4455,3769 4415,3543 4305,3375C4284,3342 4230,3279 4187,3236C4121,3170 4116,3163 4155,3191C4365,3342 4484,3560 4497,3818C4500,3879 4505,3930 4507,3930C4510,3930 4524,3922 4538,3912C4575,3887 4751,3807 4833,3779L4900,3755L4968,3779C5005,3792 5094,3831 5166,3865L5297,3927L5303,3816C5311,3682 5328,3612 5382,3501C5438,3388 5543,3261 5630,3200C5657,3182 5652,3190 5605,3241C5526,3324 5500,3360 5456,3445C5400,3554 5377,3647 5376,3775C5376,3836 5381,3910 5388,3941C5400,3994 5405,4001 5461,4040C5539,4095 5675,4224 5754,4319C5979,4590 6134,4944 6199,5340C6226,5507 6240,5668 6240,5824C6240,5971 6240,5971 6139,6096C6016,6247 5838,6391 5695,6455C5562,6514 5377,6536 5248,6509C5167,6492 5055,6444 4978,6394C4940,6370 4907,6350 4904,6350C4901,6350 4860,6373 4813,6402C4766,6430 4689,6467 4641,6483C4566,6510 4538,6514 4430,6517C4329,6519 4291,6516 4233,6500ZM4595,6400C4663,6379 4766,6325 4844,6268C4865,6253 4890,6240 4897,6240C4905,6240 4949,6264 4993,6294C5093,6360 5149,6385 5247,6411C5531,6483 5838,6332 6106,5987C6143,5940 6144,5935 6148,5847C6153,5721 6126,5432 6094,5275C6042,5017 5932,4739 5804,4542C5606,4238 5306,4000 4968,3879L4900,3855L4833,3879C4681,3932 4485,4041 4350,4149C4003,4425 3773,4853 3686,5385C3666,5507 3647,5769 3651,5861C3655,5932 3657,5938 3703,5998C3832,6165 3999,6307 4135,6366C4249,6415 4322,6430 4425,6426C4488,6423 4551,6414 4595,6400Z" style="fill:rgb(71,161,2);fill-rule:nonzero;"/>
        </g>
        <g id="g96" transform="matrix(1.28389,0,0,1.32732,-1241.04,-2269.41)">
            <path id="path94" d="M4794,4668C4777,4664 4757,4654 4751,4646C4742,4635 4748,4631 4787,4626C4814,4623 4850,4611 4868,4600C4900,4580 4900,4580 4933,4600C4950,4611 4986,4623 5012,4626C5065,4633 5065,4645 5014,4666C4985,4678 4975,4678 4938,4666C4915,4658 4893,4653 4888,4656C4865,4670 4822,4676 4794,4668Z" style="fill:rgb(71,161,2);fill-rule:nonzero;"/>
        </g>
        <g id="g100" transform="matrix(1.28389,0,0,1.32732,-1241.04,-2269.41)">
            <path id="path98" d="M4775,4468L4575,4370L5225,4370L5124,4419L5023,4467L4899,4468L4775,4468Z" style="fill:rgb(71,161,2);fill-rule:nonzero;"/>
        </g>
        <g id="g104" transform="matrix(1.28389,0,0,1.32732,-1241.04,-2269.41)">
            <path id="path102" d="M4706,4310C4726,4290 4855,4250 4902,4250C4947,4250 5074,4290 5094,4310C5101,4317 5029,4320 4900,4320C4759,4320 4699,4317 4706,4310Z" style="fill:rgb(71,161,2);fill-rule:nonzero;"/>
        </g>
        <g id="g108" transform="matrix(1.28389,0,0,1.32732,-1241.04,-2269.41)">
            <path id="path106" d="M3347,6326C3228,6283 3084,6149 3025,6025C2978,5924 2964,5850 2969,5710L2970,5665L3006,5708C3052,5763 3106,5794 3219,5830C3340,5870 3403,5902 3462,5958C3527,6019 3550,6066 3557,6153L3563,6225L3521,6178C3489,6142 3451,6117 3356,6070C3288,6037 3214,5993 3191,5974C3169,5954 3150,5943 3150,5948C3150,5963 3272,6075 3330,6112C3404,6160 3452,6210 3480,6271C3500,6314 3502,6323 3490,6331C3468,6344 3391,6341 3347,6326Z" style="fill:rgb(62,100,99);fill-rule:nonzero;"/>
        </g>
        <g id="g112" transform="matrix(1.28389,0,0,1.32732,-1241.04,-2269.41)">
            <path id="path110" d="M6311,6331C6275,6307 6369,6177 6470,6112C6525,6077 6650,5964 6650,5949C6650,5944 6626,5958 6598,5980C6550,6017 6513,6037 6385,6096C6363,6106 6323,6136 6296,6162C6268,6189 6244,6210 6242,6210C6230,6210 6252,6076 6269,6042C6313,5957 6455,5861 6591,5826C6674,5805 6729,5774 6783,5718L6830,5668L6830,5766C6830,5910 6799,6008 6722,6112C6627,6241 6494,6329 6385,6337C6352,6339 6319,6337 6311,6331Z" style="fill:rgb(62,100,99);fill-rule:nonzero;"/>
        </g>
        <g id="g116" transform="matrix(1.28389,0,0,1.32732,-1241.04,-2269.41)">
            <path id="path114" d="M3127,5661C3119,5628 3138,5520 3161,5474C3191,5414 3266,5339 3323,5311C3377,5285 3440,5283 3440,5307C3440,5332 3394,5386 3342,5421C3287,5459 3240,5500 3240,5512C3240,5517 3255,5510 3273,5496C3290,5483 3332,5460 3365,5445C3398,5431 3437,5407 3453,5393L3480,5366L3480,5392C3480,5482 3402,5552 3256,5595C3217,5606 3185,5623 3164,5644C3138,5670 3131,5673 3127,5661Z" style="fill:rgb(62,100,99);fill-rule:nonzero;"/>
        </g>
        <g id="g120" transform="matrix(1.28389,0,0,1.32732,-1241.04,-2269.41)">
            <path id="path118" d="M6632,5643C6611,5622 6577,5604 6542,5594C6395,5552 6320,5482 6320,5388L6320,5357L6342,5385C6354,5400 6393,5426 6429,5442C6465,5459 6510,5483 6528,5497C6545,5510 6560,5517 6560,5511C6560,5505 6535,5482 6504,5458C6410,5385 6371,5346 6364,5318C6358,5291 6359,5290 6396,5290C6418,5290 6453,5299 6475,5309C6528,5333 6609,5415 6638,5474C6663,5524 6683,5631 6672,5658C6666,5673 6660,5670 6632,5643Z" style="fill:rgb(62,100,99);fill-rule:nonzero;"/>
        </g>
        <g id="g124" transform="matrix(1.28389,0,0,1.32732,-1241.04,-2269.41)">
            <path id="path122" d="M3043,5366C2850,5304 2692,5056 2719,4860L2725,4815L2748,4844C2785,4891 2828,4918 2913,4945C3117,5012 3210,5104 3210,5241L3210,5272L3169,5232C3146,5208 3089,5172 3034,5145C2981,5119 2922,5084 2902,5066C2875,5042 2869,5040 2878,5056C2895,5087 2959,5146 3023,5188C3053,5209 3089,5239 3102,5255C3138,5298 3163,5351 3153,5361C3137,5377 3085,5379 3043,5366Z" style="fill:rgb(62,100,99);fill-rule:nonzero;"/>
        </g>
        <g id="g128" transform="matrix(1.28389,0,0,1.32732,-1241.04,-2269.41)">
            <path id="path126" d="M6663,5370C6636,5359 6635,5358 6657,5317C6687,5259 6714,5229 6775,5189C6840,5146 6930,5064 6930,5048C6930,5042 6915,5051 6896,5068C6877,5084 6818,5119 6764,5146C6710,5172 6650,5210 6628,5232L6590,5270L6590,5239C6590,5133 6656,5045 6782,4985C6822,4966 6864,4950 6875,4950C6912,4950 6996,4903 7037,4860L7078,4818L7082,4862C7090,4935 7072,5030 7035,5109C6960,5267 6757,5409 6663,5370Z" style="fill:rgb(62,100,99);fill-rule:nonzero;"/>
        </g>
        <g id="g132" transform="matrix(1.28389,0,0,1.32732,-1241.04,-2269.41)">
            <path id="path130" d="M3423,5229C3399,5218 3355,5181 3324,5147C3222,5037 3179,4904 3200,4766C3213,4682 3223,4668 3240,4709C3257,4752 3315,4801 3397,4844C3478,4887 3541,4945 3570,5004C3590,5047 3595,5117 3581,5155C3573,5174 3573,5174 3566,5152C3555,5119 3513,5073 3461,5038C3436,5021 3394,4987 3368,4961C3279,4877 3323,4950 3426,5060C3487,5126 3528,5205 3517,5235C3508,5256 3473,5254 3423,5229Z" style="fill:rgb(62,100,99);fill-rule:nonzero;"/>
        </g>
        <g id="g136" transform="matrix(1.28389,0,0,1.32732,-1241.04,-2269.41)">
            <path id="path134" d="M6283,5235C6272,5205 6313,5126 6374,5060C6477,4950 6521,4877 6433,4961C6406,4987 6364,5021 6338,5039C6287,5073 6230,5136 6229,5160C6228,5194 6211,5133 6211,5091C6209,4999 6288,4902 6416,4837C6487,4801 6537,4756 6562,4706L6577,4677L6590,4716C6611,4780 6607,4915 6581,4981C6540,5088 6462,5182 6377,5228C6328,5254 6292,5256 6283,5235Z" style="fill:rgb(62,100,99);fill-rule:nonzero;"/>
        </g>
        <g id="g140" transform="matrix(1.28389,0,0,1.32732,-1241.04,-2269.41)">
            <path id="path138" d="M2957,4878C2969,4865 2992,4826 3010,4790C3028,4754 3047,4722 3054,4718C3060,4714 3061,4708 3057,4703C3049,4696 3017,4731 2975,4795C2952,4828 2892,4872 2876,4867C2840,4855 2873,4761 2938,4693C2998,4631 3059,4601 3146,4593L3214,4587L3178,4629C3158,4653 3137,4691 3130,4718C3105,4820 3034,4900 2970,4900L2937,4900L2957,4878Z" style="fill:rgb(62,100,99);fill-rule:nonzero;"/>
        </g>
        <g id="g144" transform="matrix(1.28389,0,0,1.32732,-1241.04,-2269.41)">
            <path id="path142" d="M6761,4874C6721,4841 6685,4778 6670,4718C6663,4692 6643,4653 6623,4631L6588,4590L6627,4590C6716,4590 6810,4634 6873,4704C6924,4762 6956,4849 6930,4865C6914,4875 6861,4841 6832,4801C6797,4753 6753,4700 6747,4700C6739,4700 6823,4855 6843,4878L6863,4900L6828,4900C6803,4900 6781,4891 6761,4874Z" style="fill:rgb(62,100,99);fill-rule:nonzero;"/>
        </g>
        <g id="g148" transform="matrix(1.28389,0,0,1.32732,-1241.04,-2269.41)">
            <path id="path146" d="M3525,4817C3404,4769 3352,4698 3328,4546C3319,4488 3319,4445 3328,4367C3341,4249 3333,4190 3295,4122L3270,4078L3302,4084C3355,4094 3475,4160 3530,4208C3631,4296 3711,4450 3731,4598C3741,4663 3740,4685 3727,4731C3718,4762 3702,4794 3692,4804C3674,4820 3671,4819 3635,4779C3587,4726 3566,4677 3541,4562C3521,4469 3475,4350 3459,4350C3455,4350 3457,4365 3464,4383C3482,4426 3489,4473 3499,4611C3505,4705 3511,4738 3532,4779C3546,4807 3557,4830 3556,4829C3555,4829 3542,4823 3525,4817Z" style="fill:rgb(62,100,99);fill-rule:nonzero;"/>
        </g>
        <g id="g152" transform="matrix(1.28389,0,0,1.32732,-1241.04,-2269.41)">
            <path id="path150" d="M6254,4807C6284,4762 6298,4701 6305,4589C6312,4469 6323,4401 6342,4366C6352,4348 6351,4347 6338,4358C6313,4378 6281,4463 6259,4563C6234,4678 6209,4735 6163,4782C6134,4812 6124,4817 6113,4808C6023,4733 6064,4466 6192,4296C6255,4212 6343,4146 6447,4103C6490,4086 6526,4073 6528,4074C6529,4076 6519,4097 6506,4121C6466,4194 6457,4254 6471,4355C6500,4579 6442,4739 6305,4804C6237,4836 6236,4836 6254,4807Z" style="fill:rgb(62,100,99);fill-rule:nonzero;"/>
        </g>
        <g id="g156" transform="matrix(1.28389,0,0,1.32732,-1241.04,-2269.41)">
            <path id="path154" d="M2775,4690C2765,4628 2787,4510 2825,4434C2886,4309 3009,4195 3117,4164C3182,4145 3240,4152 3240,4178C3240,4216 3171,4297 3100,4344C3020,4397 2940,4470 2940,4490C2940,4498 2953,4491 2973,4473C3006,4441 3041,4422 3151,4371C3190,4353 3232,4324 3254,4300L3290,4260L3290,4303C3290,4438 3193,4531 2990,4593C2896,4621 2879,4630 2833,4675L2781,4725L2775,4690Z" style="fill:rgb(62,100,99);fill-rule:nonzero;"/>
        </g>
        <g id="g160" transform="matrix(1.28389,0,0,1.32732,-1241.04,-2269.41)">
            <path id="path158" d="M6986,4693C6947,4647 6886,4613 6800,4589C6617,4539 6510,4435 6510,4308L6510,4260L6546,4300C6568,4324 6609,4352 6649,4370C6746,4415 6790,4439 6835,4474L6875,4505L6842,4465C6811,4425 6762,4386 6671,4325C6626,4294 6560,4208 6560,4178C6560,4152 6618,4145 6683,4164C6739,4180 6831,4242 6887,4301C6932,4349 6987,4444 7004,4504C7023,4572 7034,4680 7023,4706C7015,4725 7014,4724 6986,4693Z" style="fill:rgb(62,100,99);fill-rule:nonzero;"/>
        </g>
        <g id="g164" transform="matrix(1.28389,0,0,1.32732,-1241.04,-2269.41)">
            <path id="path162" d="M5952,4472C5884,4367 5864,4279 5880,4162C5892,4077 5935,3971 5977,3928C6004,3900 6057,3873 6066,3883C6082,3899 6072,4008 6051,4055C6015,4133 5990,4211 5990,4239C5991,4260 5995,4255 6009,4218C6020,4192 6044,4148 6063,4121C6111,4055 6130,4016 6139,3967L6146,3925L6170,3970C6222,4067 6192,4179 6081,4308C6014,4386 5992,4427 5988,4484C5987,4504 5985,4520 5984,4520C5983,4520 5968,4499 5952,4472Z" style="fill:rgb(62,100,99);fill-rule:nonzero;"/>
        </g>
        <g id="g168" transform="matrix(1.28389,0,0,1.32732,-1241.04,-2269.41)">
            <path id="path166" d="M3810,4481C3810,4432 3785,4384 3725,4317C3612,4193 3578,4068 3630,3970C3643,3945 3654,3930 3656,3935C3657,3941 3661,3961 3664,3981C3668,4001 3697,4058 3729,4108C3761,4158 3791,4214 3795,4232C3803,4265 3803,4265 3807,4238C3810,4221 3796,4171 3772,4113C3728,4001 3716,3943 3730,3905C3738,3884 3744,3880 3763,3885C3860,3915 3946,4135 3921,4291C3909,4360 3863,4465 3830,4495C3810,4513 3810,4513 3810,4481Z" style="fill:rgb(62,100,99);fill-rule:nonzero;"/>
        </g>
        <g id="g172" transform="matrix(1.28389,0,0,1.32732,-1241.04,-2269.41)">
            <path id="path170" d="M2978,4121L2950,4115L2984,4082C3003,4064 3027,4026 3037,3998C3057,3941 3108,3876 3151,3855C3166,3847 3196,3840 3216,3840L3253,3840L3226,3861C3212,3872 3188,3903 3173,3928C3159,3954 3135,3987 3121,4003C3108,4018 3101,4030 3107,4030C3113,4030 3139,4006 3166,3978C3228,3910 3250,3893 3283,3885C3307,3879 3310,3881 3310,3905C3310,4022 3112,4151 2978,4121Z" style="fill:rgb(62,100,99);fill-rule:nonzero;"/>
        </g>
        <g id="g176" transform="matrix(1.28389,0,0,1.32732,-1241.04,-2269.41)">
            <path id="path174" d="M6703,4114C6622,4093 6557,4045 6507,3970C6485,3938 6484,3880 6505,3880C6525,3880 6569,3909 6597,3940C6641,3989 6685,4030 6694,4030C6699,4030 6694,4020 6683,4008C6672,3995 6647,3960 6627,3929C6608,3898 6581,3865 6569,3856C6546,3840 6546,3840 6583,3840C6656,3840 6711,3888 6761,3995C6792,4062 6804,4078 6840,4103L6864,4120L6835,4121C6818,4121 6794,4123 6780,4125C6766,4126 6731,4122 6703,4114Z" style="fill:rgb(62,100,99);fill-rule:nonzero;"/>
        </g>
        <g id="g180" transform="matrix(1.28389,0,0,1.32732,-1241.04,-2269.41)">
            <path id="path178" d="M4085,4078C3992,4045 3876,3936 3828,3838C3793,3766 3781,3712 3780,3622L3780,3549L3828,3598C3871,3642 3888,3651 3978,3680C4155,3736 4240,3815 4248,3932L4253,3994L4219,3955C4197,3930 4156,3903 4103,3878C4058,3857 4000,3824 3975,3805C3950,3786 3930,3774 3930,3778C3930,3791 4022,3876 4065,3903C4146,3953 4211,4038 4196,4075C4190,4093 4131,4094 4085,4078Z" style="fill:rgb(62,100,99);fill-rule:nonzero;"/>
        </g>
        <g id="g184" transform="matrix(1.28389,0,0,1.32732,-1241.04,-2269.41)">
            <path id="path182" d="M5608,4079C5591,4070 5591,4067 5609,4032C5636,3981 5666,3950 5725,3910C5780,3874 5870,3791 5870,3777C5870,3772 5856,3780 5838,3795C5821,3809 5764,3844 5711,3870C5605,3924 5592,3934 5567,3970L5550,3994L5550,3945C5551,3879 5578,3822 5630,3778C5680,3734 5729,3710 5839,3675C5907,3653 5929,3640 5970,3599L6020,3549L6020,3622C6020,3762 5978,3863 5879,3962C5781,4061 5663,4112 5608,4079Z" style="fill:rgb(62,100,99);fill-rule:nonzero;"/>
        </g>
        <g id="g188" transform="matrix(1.28389,0,0,1.32732,-1241.04,-2269.41)">
            <path id="path186" d="M3574,3890C3517,3867 3486,3775 3496,3662C3501,3612 3498,3585 3487,3558C3478,3537 3475,3520 3481,3520C3506,3520 3590,3573 3624,3610C3695,3689 3731,3822 3696,3876C3679,3900 3678,3901 3660,3885C3640,3867 3626,3831 3595,3727C3586,3695 3577,3670 3575,3672C3567,3679 3589,3859 3599,3879C3612,3902 3607,3904 3574,3890Z" style="fill:rgb(62,100,99);fill-rule:nonzero;"/>
        </g>
        <g id="g192" transform="matrix(1.28389,0,0,1.32732,-1241.04,-2269.41)">
            <path id="path190" d="M6100,3875C6061,3773 6143,3604 6262,3544C6325,3512 6332,3513 6313,3558C6302,3585 6299,3612 6304,3662C6313,3756 6296,3826 6255,3867C6237,3885 6215,3900 6207,3900C6194,3900 6194,3895 6205,3863C6212,3842 6220,3789 6223,3745C6227,3672 6227,3668 6214,3695C6207,3712 6196,3748 6190,3777C6179,3830 6145,3890 6123,3898C6116,3900 6106,3890 6100,3875Z" style="fill:rgb(62,100,99);fill-rule:nonzero;"/>
        </g>
        <g id="g196" transform="matrix(1.28389,0,0,1.32732,-1241.04,-2269.41)">
            <path id="path194" d="M4109,3666C4006,3637 3882,3542 3839,3457C3821,3422 3811,3356 3822,3345C3824,3342 3847,3347 3872,3356C3903,3366 3936,3390 3972,3428C4047,3506 4108,3560 4121,3560C4128,3560 4111,3536 4084,3507C4057,3478 4020,3429 4002,3399C3984,3369 3952,3333 3933,3318L3897,3290L3954,3290C4056,3290 4129,3349 4190,3479C4238,3583 4245,3593 4288,3625C4311,3642 4329,3658 4329,3661C4331,3681 4177,3684 4109,3666Z" style="fill:rgb(62,100,99);fill-rule:nonzero;"/>
        </g>
        <g id="g200" transform="matrix(1.28389,0,0,1.32732,-1241.04,-2269.41)">
            <path id="path198" d="M5498,3673C5465,3668 5462,3654 5490,3645C5519,3636 5574,3563 5599,3500C5628,3426 5700,3335 5751,3310C5781,3294 5806,3290 5848,3292L5905,3295L5873,3312C5854,3323 5819,3363 5787,3412C5757,3458 5720,3506 5706,3519C5669,3553 5674,3566 5713,3539C5744,3517 5772,3490 5837,3418C5867,3385 5907,3361 5958,3345C5981,3338 5984,3346 5980,3400C5975,3470 5870,3585 5763,3636C5703,3665 5678,3671 5608,3675C5562,3677 5513,3676 5498,3673Z" style="fill:rgb(62,100,99);fill-rule:nonzero;"/>
        </g>
        <g id="Ebene6" transform="matrix(29.5804,0,0,-28.4203,-3731.56,11156.6)">
            <path id="path132-9" d="M252.311,186.096L338.998,186.388L344.325,191.715L344.325,228.269L337.2,235.393L305.429,235.393L301.465,231.43L290.987,231.43L287.182,235.235L254.579,235.235L247.441,228.097L247.441,192.939L252.311,186.096" style="fill:rgb(10,10,10);stroke:black;stroke-width:1px;"/>
            <g id="text134" transform="matrix(1,0,0,1,318.898,230.804)">
                <text id="text203" x="0px" y="0px" style="font-family:'ArialMT', 'Arial', sans-serif;font-size:15.694px;fill:white;">VR</text>
            </g>
            <path id="path138-1" d="M258.723,219.242L254.734,217.63L249.247,230.57L253.235,232.182L258.723,219.242Z"/>
            <path id="path140-5" d="M344.734,194.153L339.416,190.185L333.044,201.082L338.362,205.049L344.734,194.153Z"/>
        </g>
        <g transform="matrix(20.3339,0,0,-20.3339,-9967.4,19319.4)">
            <text x="578.854px" y="892.992px" style="font-family:'ArialMT', 'Arial', sans-serif;font-size:50px;">mother</text>
            <text x="748.361px" y="892.992px" style="font-family:'ArialMT', 'Arial', sans-serif;font-size:50px;">nat</text>
            <text x="817.868px" y="892.992px" style="font-family:'ArialMT', 'Arial', sans-serif;font-size:50px;fill:rgb(82,187,2);">vr</text>
            <text x="859.518px" y="892.992px" style="font-family:'ArialMT', 'Arial', sans-serif;font-size:50px;">e</text>
        </g>
        <g transform="matrix(4.69065,0,0,-4.69065,85.2953,5302.25)">
            <text x="706.498px" y="1040.88px" style="font-family:'Arial-ItalicMT', 'Arial', sans-serif;font-style:italic;font-size:116.596px;fill:rgb(82,187,2);">meet climate</text>
        </g>
    </g>
</svg>
