<?xml version="1.0" encoding="UTF-8" standalone="no"?>
<!DOCTYPE svg PUBLIC "-//W3C//DTD SVG 1.1//EN" "http://www.w3.org/Graphics/SVG/1.1/DTD/svg11.dtd">
<svg width="100%" height="100%" viewBox="0 0 800 600" version="1.1" xmlns="http://www.w3.org/2000/svg" xmlns:xlink="http://www.w3.org/1999/xlink" xml:space="preserve" xmlns:serif="http://www.serif.com/" style="fill-rule:evenodd;clip-rule:evenodd;stroke-linejoin:round;stroke-miterlimit:2;">
    <g transform="matrix(0.990652,0,0,1.06271,91.5608,-43.8994)">
        <path d="M223.239,416L223.239,376.687L336.613,236.663L236.049,236.663L236.049,200.147L394.037,200.147L394.037,234.012L275.804,379.632L398.601,379.632L398.601,416L223.239,416Z" style="fill:rgb(79,27,220);fill-rule:nonzero;"/>
    </g>
    <g transform="matrix(1.29365,0,0,1.29365,-37.4094,-113.825)">
        <path d="M234.577,310.871C234.577,275.043 244.196,246.994 263.436,226.724C282.675,206.454 307.509,196.319 337.939,196.319C357.865,196.319 375.828,201.08 391.828,210.601C407.828,220.123 420.025,233.399 428.417,250.429C436.81,267.46 441.006,286.773 441.006,308.368C441.006,330.258 436.589,349.84 427.755,367.117C418.92,384.393 406.405,397.472 390.209,406.356C374.012,415.239 356.54,419.681 337.791,419.681C317.472,419.681 299.313,414.773 283.313,404.957C267.313,395.141 255.19,381.742 246.945,364.761C238.699,347.779 234.577,329.816 234.577,310.871ZM264.025,311.313C264.025,337.325 271.018,357.816 285.006,372.785C298.994,387.755 316.54,395.239 337.644,395.239C359.141,395.239 376.834,387.681 390.724,372.564C404.613,357.448 411.558,336 411.558,308.221C411.558,290.65 408.589,275.313 402.65,262.209C396.712,249.104 388.025,238.945 376.589,231.73C365.153,224.515 352.319,220.908 338.086,220.908C317.865,220.908 300.466,227.853 285.89,241.742C271.313,255.632 264.025,278.822 264.025,311.313ZM295.975,186.896L295.975,156.712L323.656,156.712L323.656,186.896L295.975,186.896ZM350.896,186.896L350.896,156.712L378.577,156.712L378.577,186.896L350.896,186.896Z" style="fill:white;fill-rule:nonzero;"/>
    </g>
    <g transform="matrix(2.40727,0,0,2.40727,-75.907,-161.055)">
        <path d="M123.217,292.497C124.18,292.497 125.648,291.998 127.62,290.998C129.592,289.999 131.568,288.643 133.549,286.93C135.886,284.931 137.055,283.049 137.055,281.282C137.055,279.997 136.734,278.712 136.091,277.428C140.945,273.091 144.13,270.406 145.647,269.371C145.772,269.299 145.835,269.201 145.835,269.076C145.835,268.987 145.803,268.889 145.741,268.782C145.678,268.675 145.585,268.621 145.46,268.621C145.371,268.621 145.281,268.648 145.192,268.702C143.658,269.719 140.499,272.378 135.717,276.678C135.11,275.554 134.45,274.492 133.736,273.493C134.7,273.225 135.681,272.614 136.68,271.659C137.68,270.705 138.465,269.638 139.036,268.461C139.411,267.676 139.598,266.944 139.598,266.266C139.598,264.945 139.054,264.285 137.965,264.285C137.787,264.285 137.363,264.352 136.694,264.486C136.025,264.62 134.789,265.588 132.987,267.39C132.273,268.122 131.916,268.63 131.916,268.916C131.916,269.201 132.059,269.344 132.344,269.344C132.523,269.344 132.647,269.264 132.719,269.103C132.879,268.764 133.165,268.389 133.575,267.979C135.253,266.248 136.475,265.383 137.242,265.383C137.635,265.383 137.831,265.659 137.831,266.212C137.831,266.801 137.581,267.542 137.082,268.434C136.582,269.326 135.931,270.134 135.128,270.856C134.325,271.579 133.575,271.94 132.879,271.94L132.505,271.914C132.112,271.914 131.916,272.056 131.916,272.342C131.916,272.699 132.112,273.118 132.505,273.6C133.415,274.813 134.209,276.089 134.887,277.428C129.212,282.603 125.367,286.511 123.35,289.152C122.512,290.24 122.092,291.097 122.092,291.721C122.092,292.239 122.467,292.497 123.217,292.497ZM123.457,290.865L123.35,290.865C123.279,290.865 123.243,290.847 123.243,290.811C123.243,290.704 123.324,290.534 123.484,290.303C123.734,289.981 123.913,289.767 124.02,289.66C125.911,287.126 129.65,283.316 135.235,278.231C135.538,278.98 135.69,279.739 135.69,280.506C135.69,280.934 135.645,281.353 135.556,281.764C135.235,282.942 134.329,284.177 132.839,285.471C131.349,286.765 129.716,287.916 127.941,288.924C126.165,289.932 124.671,290.579 123.457,290.865Z" style="fill:white;fill-rule:nonzero;"/>
        <path d="M148.377,274.751C148.699,274.751 149.243,274.586 150.01,274.256C150.778,273.926 151.79,273.243 153.048,272.208C154.306,271.173 155.355,270.165 156.193,269.183C156.265,269.094 156.3,269.014 156.3,268.943C156.3,268.889 156.274,268.804 156.22,268.688C156.167,268.572 156.051,268.514 155.872,268.514C155.765,268.514 155.658,268.559 155.551,268.648C154.48,269.915 153.419,271.013 152.366,271.94C151.045,273.118 150.091,273.707 149.502,273.707C149.18,273.707 149.02,273.484 149.02,273.038C149.02,272.895 149.064,272.534 149.154,271.954C149.243,271.374 149.957,269.826 151.295,267.31L151.964,266.052C152.303,265.427 152.473,265.026 152.473,264.847C152.473,264.704 152.406,264.535 152.272,264.339C152.138,264.142 151.92,264.044 151.616,264.044C151.402,264.044 151.206,264.151 151.027,264.365C150.706,264.294 150.385,264.258 150.064,264.258C149.511,264.258 148.904,264.414 148.244,264.727C147.583,265.039 146.977,265.516 146.423,266.159C145.674,267.087 145.299,267.97 145.299,268.809C145.299,269.362 145.496,269.763 145.888,270.013C146.049,270.12 146.245,270.174 146.477,270.174C146.959,270.174 147.592,269.96 148.377,269.531C147.628,271.352 147.253,272.672 147.253,273.493C147.253,273.778 147.298,274.001 147.387,274.162C147.583,274.555 147.914,274.751 148.377,274.751ZM147.387,268.996C147.137,268.996 147.012,268.862 147.012,268.595C147.012,268.291 147.235,267.836 147.682,267.229C148.449,266.337 149.279,265.891 150.171,265.891L149.18,267.818C149.02,267.997 148.85,268.157 148.672,268.3C148.119,268.764 147.69,268.996 147.387,268.996Z" style="fill:white;fill-rule:nonzero;"/>
        <path d="M155.845,294.05C154.775,294.3 154.052,293.639 153.677,292.069C153.481,291.266 153.374,290.213 153.356,288.911C153.356,286.448 153.865,282.951 154.882,278.418C157.416,279.185 159.013,280.479 159.673,282.299C159.816,282.674 159.932,283.058 160.021,283.45C160.36,284.896 160.302,286.497 159.847,288.255C159.392,290.013 158.647,291.498 157.612,292.712C157.005,293.461 156.416,293.907 155.845,294.05ZM157.077,269.933C158.147,266.257 159.334,262.866 160.637,259.761C161.475,257.745 162.439,255.55 163.528,253.177C165.901,248.038 167.569,245.298 168.533,244.959C168.765,244.906 168.917,245.022 168.988,245.307C169.059,245.629 168.988,246.307 168.774,247.342C168.56,248.377 168.038,249.978 167.208,252.146C166.378,254.314 165.383,256.594 164.223,258.985C163.064,261.376 161.859,263.562 160.61,265.543C159.361,267.524 158.183,268.987 157.077,269.933ZM155.042,295.469C155.31,295.415 155.801,295.187 156.515,294.786C157.228,294.384 158.067,293.412 159.031,291.868C159.994,290.325 160.646,288.607 160.985,286.716C161.199,285.484 161.172,284.298 160.904,283.156C160.762,282.567 160.431,281.724 159.914,280.626C159.397,279.529 157.951,278.579 155.578,277.776C157.987,276.223 159.959,274.778 161.493,273.439C162.118,272.761 164.116,271.236 167.489,268.862C167.632,268.773 167.685,268.639 167.65,268.461C167.632,268.407 167.601,268.34 167.556,268.26C167.511,268.18 167.449,268.135 167.369,268.126C167.288,268.117 167.221,268.122 167.168,268.14L167.034,268.193C164.393,270.049 162.377,271.584 160.985,272.797C159.468,274.1 157.55,275.509 155.23,277.026C155.658,275.135 156.149,273.216 156.702,271.271C158.022,270.308 159.419,268.746 160.891,266.587C162.363,264.428 163.755,262.028 165.067,259.387C166.378,256.746 167.453,254.221 168.292,251.812C169.47,248.475 169.916,246.2 169.63,244.986C169.452,244.272 169.015,243.996 168.319,244.156C166.463,244.71 164.393,247.342 162.109,252.053C160.36,255.622 158.825,259.324 157.505,263.161C153.775,273.671 151.83,282.264 151.67,288.937C151.688,290.49 151.813,291.766 152.045,292.765C152.259,293.657 152.562,294.318 152.955,294.746C153.561,295.406 154.257,295.647 155.042,295.469Z" style="fill:white;fill-rule:nonzero;"/>
        <path d="M167.543,273.225C167.739,273.225 168.127,273.158 168.707,273.024C169.287,272.891 170.148,272.445 171.29,271.686C172.432,270.928 173.449,270.102 174.341,269.21C174.413,269.121 174.448,269.023 174.448,268.916C174.448,268.809 174.408,268.715 174.328,268.635C174.248,268.554 174.154,268.514 174.047,268.514C173.94,268.514 173.842,268.55 173.752,268.621C173.271,269.121 172.637,269.683 171.852,270.308C170.389,271.45 169.327,272.021 168.667,272.021C168.221,272.021 167.998,271.789 167.998,271.325C167.998,270.861 168.203,270.129 168.613,269.13C168.72,268.844 168.845,268.568 168.988,268.3C171.772,267.783 173.164,266.667 173.164,264.954C173.164,264.562 173.034,264.196 172.775,263.857C172.517,263.518 172.129,263.295 171.611,263.188C171.094,263.081 170.5,263.281 169.831,263.79C169.162,264.298 168.247,265.864 167.088,268.487C166.499,269.951 166.204,271.057 166.204,271.807C166.204,272.074 166.24,272.297 166.311,272.476C166.543,272.975 166.954,273.225 167.543,273.225ZM169.523,267.363C170.665,265.49 171.549,264.553 172.173,264.553C172.352,264.553 172.441,264.678 172.441,264.927C172.441,265.249 172.222,265.659 171.785,266.159C171.348,266.658 170.594,267.06 169.523,267.363Z" style="fill:white;fill-rule:nonzero;"/>
        <path d="M177.179,278.605C177.857,278.605 178.941,277.981 180.431,276.732C181.921,275.483 183.835,273.038 186.172,269.398L186.199,269.371C186.324,269.121 186.386,268.96 186.386,268.889C186.386,268.639 186.244,268.514 185.958,268.514C185.815,268.514 185.699,268.586 185.61,268.728C185.61,268.782 185.566,268.853 185.476,268.943C183.567,271.94 181.89,274.162 180.444,275.607C179.427,276.625 178.669,277.133 178.169,277.133C177.741,277.133 177.527,276.723 177.527,275.902C177.527,274.742 178.339,272.69 179.962,269.746C181.336,267.229 182.023,265.552 182.023,264.713C182.023,264.553 181.988,264.33 181.916,264.044C181.845,263.759 181.461,263.616 180.765,263.616C180.355,263.652 179.704,263.75 178.811,263.91C179.097,263.339 179.24,262.884 179.24,262.545C179.24,262.01 178.847,261.742 178.062,261.742C177.152,261.742 176.224,262.179 175.278,263.054C174.761,263.536 174.466,263.982 174.395,264.392C174.395,264.82 174.698,265.07 175.305,265.142C176.197,265.142 176.804,265.088 177.125,264.981C176.608,265.623 176.072,266.248 175.519,266.855C174.466,268.032 173.886,268.666 173.779,268.755C173.726,268.844 173.699,268.934 173.699,269.023C173.699,269.166 173.739,269.268 173.819,269.331C173.9,269.393 173.984,269.424 174.074,269.424C174.216,269.424 174.332,269.389 174.422,269.317C174.457,269.246 174.555,269.13 174.716,268.969C174.752,268.951 174.779,268.925 174.796,268.889C176.188,267.426 177.339,266.07 178.249,264.82C178.553,264.785 178.82,264.767 179.052,264.767C179.855,264.767 180.257,265.061 180.257,265.65C180.257,266.382 179.659,267.738 178.463,269.719C176.679,272.681 175.787,274.876 175.787,276.303C175.787,276.982 175.956,277.606 176.295,278.177C176.527,278.463 176.822,278.605 177.179,278.605ZM176.563,264.205C176.438,264.205 176.376,264.187 176.376,264.151C176.376,264.044 176.768,263.821 177.553,263.482C177.839,263.357 178.026,263.295 178.115,263.295C178.169,263.295 178.196,263.313 178.196,263.348C178.196,263.545 178.062,263.777 177.794,264.044C177.259,264.151 176.849,264.205 176.563,264.205Z" style="fill:white;fill-rule:nonzero;"/>
        <path d="M206.569,264.071C206.819,264.071 207.05,263.991 207.265,263.83C207.586,263.562 207.746,263.214 207.746,262.786C207.746,262.233 207.497,261.858 206.997,261.662L206.649,261.608C206.417,261.608 206.203,261.689 206.007,261.849C205.685,262.117 205.525,262.474 205.525,262.92C205.525,263.116 205.56,263.295 205.632,263.455C205.828,263.866 206.14,264.071 206.569,264.071ZM206.569,264.071C206.819,264.071 207.05,263.991 207.265,263.83C207.586,263.562 207.746,263.214 207.746,262.786C207.746,262.233 207.497,261.858 206.997,261.662L206.649,261.608C206.417,261.608 206.203,261.689 206.007,261.849C205.685,262.117 205.525,262.474 205.525,262.92C205.525,263.116 205.56,263.295 205.632,263.455C205.828,263.866 206.14,264.071 206.569,264.071ZM209.915,264.071C210.164,264.071 210.387,263.991 210.584,263.83C210.923,263.562 211.092,263.214 211.092,262.786C211.092,262.233 210.834,261.858 210.316,261.662L209.995,261.608C209.763,261.608 209.549,261.689 209.352,261.849C209.013,262.117 208.844,262.474 208.844,262.92C208.844,263.116 208.888,263.295 208.978,263.455C209.174,263.866 209.486,264.071 209.915,264.071ZM209.915,264.071C210.164,264.071 210.387,263.991 210.584,263.83C210.923,263.562 211.092,263.214 211.092,262.786C211.092,262.233 210.834,261.858 210.316,261.662L209.995,261.608C209.763,261.608 209.549,261.689 209.352,261.849C209.013,262.117 208.844,262.474 208.844,262.92C208.844,263.116 208.888,263.295 208.978,263.455C209.174,263.866 209.486,264.071 209.915,264.071ZM207.746,269.772L207.024,269.746C207.666,268.104 208.309,266.935 208.951,266.239C209.326,265.829 209.62,265.623 209.834,265.623C210.048,265.623 210.155,265.793 210.155,266.132C210.155,266.721 209.727,267.916 208.871,269.719C208.478,269.754 208.103,269.772 207.746,269.772ZM205.337,268.996C205.248,268.853 205.204,268.711 205.204,268.568C205.204,268.443 205.257,268.269 205.364,268.046C205.471,267.823 205.672,267.582 205.966,267.323C206.261,267.064 206.506,266.881 206.703,266.774C206.149,267.542 205.694,268.282 205.337,268.996ZM206.167,273.921C206.007,273.921 205.926,273.769 205.926,273.466C205.926,273.413 205.944,273.274 205.98,273.051C206.016,272.828 206.096,272.467 206.221,271.967C206.346,271.468 206.462,271.084 206.569,270.816C206.622,270.816 206.667,270.825 206.703,270.843L207.907,270.897L208.523,270.897C207.416,272.913 206.631,273.921 206.167,273.921ZM205.605,274.912C206.247,274.912 207.077,274.287 208.094,273.038C208.558,272.449 209.049,271.646 209.567,270.629C210.887,270.397 212.101,269.897 213.207,269.13C213.332,269.041 213.403,268.925 213.421,268.782C213.439,268.639 213.403,268.505 213.314,268.38C213.225,268.256 213.1,268.193 212.939,268.193C212.832,268.193 212.725,268.229 212.618,268.3C211.833,268.853 210.976,269.237 210.048,269.451L210.182,269.21C210.539,268.318 210.718,267.551 210.718,266.908C210.718,265.623 210.164,264.981 209.058,264.981C208.505,264.981 207.782,265.159 206.89,265.516C206.337,265.748 205.792,266.114 205.257,266.614C204.525,267.292 204.16,267.97 204.16,268.648C204.16,269.112 204.409,269.549 204.909,269.96C204.517,270.995 204.32,271.931 204.32,272.77C204.32,272.949 204.347,273.332 204.401,273.921C204.49,274.581 204.891,274.912 205.605,274.912Z" style="fill:white;fill-rule:nonzero;"/>
        <path d="M203.838,292.497C204.802,292.497 206.27,291.998 208.242,290.998C210.213,289.999 212.19,288.643 214.17,286.93C216.508,284.931 217.677,283.049 217.677,281.282C217.677,279.997 217.356,278.712 216.713,277.428C221.567,273.091 224.752,270.406 226.269,269.371C226.394,269.299 226.456,269.201 226.456,269.076C226.456,268.987 226.425,268.889 226.363,268.782C226.3,268.675 226.207,268.621 226.082,268.621C225.993,268.621 225.903,268.648 225.814,268.702C224.279,269.719 221.121,272.378 216.339,276.678C215.732,275.554 215.072,274.492 214.358,273.493C215.321,273.225 216.303,272.614 217.302,271.659C218.302,270.705 219.087,269.638 219.658,268.461C220.032,267.676 220.22,266.944 220.22,266.266C220.22,264.945 219.676,264.285 218.587,264.285C218.409,264.285 217.985,264.352 217.316,264.486C216.646,264.62 215.411,265.588 213.608,267.39C212.895,268.122 212.538,268.63 212.538,268.916C212.538,269.201 212.68,269.344 212.966,269.344C213.144,269.344 213.269,269.264 213.341,269.103C213.501,268.764 213.787,268.389 214.197,267.979C215.875,266.248 217.097,265.383 217.864,265.383C218.257,265.383 218.453,265.659 218.453,266.212C218.453,266.801 218.203,267.542 217.704,268.434C217.204,269.326 216.553,270.134 215.75,270.856C214.947,271.579 214.197,271.94 213.501,271.94L213.127,271.914C212.734,271.914 212.538,272.056 212.538,272.342C212.538,272.699 212.734,273.118 213.127,273.6C214.037,274.813 214.831,276.089 215.509,277.428C209.834,282.603 205.989,286.511 203.972,289.152C203.134,290.24 202.714,291.097 202.714,291.721C202.714,292.239 203.089,292.497 203.838,292.497ZM204.079,290.865L203.972,290.865C203.901,290.865 203.865,290.847 203.865,290.811C203.865,290.704 203.946,290.534 204.106,290.303C204.356,289.981 204.534,289.767 204.641,289.66C206.533,287.126 210.271,283.316 215.857,278.231C216.16,278.98 216.312,279.739 216.312,280.506C216.312,280.934 216.267,281.353 216.178,281.764C215.857,282.942 214.951,284.177 213.461,285.471C211.971,286.765 210.338,287.916 208.563,288.924C206.787,289.932 205.293,290.579 204.079,290.865Z" style="fill:white;fill-rule:nonzero;"/>
        <path d="M218.186,290.758C218.418,290.74 218.618,290.646 218.788,290.476C218.957,290.307 220.264,287.599 222.709,282.353C223.851,279.926 224.672,278.213 225.172,277.213C229.222,276.018 232.18,274.729 234.045,273.346C235.91,271.963 237.538,270.459 238.93,268.835C239.001,268.746 239.028,268.648 239.01,268.541C238.974,268.291 238.841,268.175 238.609,268.193C238.466,268.211 238.359,268.264 238.287,268.354C235.682,271.173 233.425,272.993 231.515,273.814C232.568,272.619 233.327,271.352 233.791,270.013C234.219,268.764 234.397,267.676 234.326,266.748C234.326,266.694 234.299,266.409 234.246,265.891C234.192,265.374 233.835,265.07 233.175,264.981L232.961,264.954C232.354,265.008 231.524,265.615 230.472,266.774C227.955,269.951 225.35,274.519 222.656,280.479L221.906,282.005C223.012,279.292 224.074,276.562 225.091,273.814L225.225,273.493C226.956,268.871 228.812,264.321 230.793,259.842C230.828,259.788 230.837,259.726 230.819,259.654C230.819,259.619 230.806,259.561 230.779,259.48C230.753,259.4 230.695,259.342 230.605,259.306C230.516,259.271 230.436,259.253 230.364,259.253C230.222,259.271 230.115,259.351 230.043,259.494L228.571,262.706L224.047,272.797C222.049,277.294 220.202,281.764 218.507,286.207C218.078,287.278 217.766,288.117 217.57,288.723C217.445,289.152 217.4,289.571 217.436,289.981C217.436,290.017 217.449,290.16 217.476,290.41C217.503,290.659 217.739,290.775 218.186,290.758ZM226.028,275.447C226.474,274.572 227.438,272.931 228.919,270.522C230.561,267.863 231.703,266.507 232.345,266.453C232.631,266.435 232.8,266.667 232.854,267.149C232.889,267.595 232.742,268.3 232.412,269.264C232.082,270.227 231.391,271.325 230.338,272.556C229.285,273.787 227.848,274.751 226.028,275.447Z" style="fill:white;fill-rule:nonzero;"/>
        <path d="M238.93,273.225C239.126,273.225 239.514,273.158 240.094,273.024C240.674,272.891 241.535,272.445 242.677,271.686C243.819,270.928 244.836,270.102 245.729,269.21C245.8,269.121 245.836,269.023 245.836,268.916C245.836,268.809 245.796,268.715 245.715,268.635C245.635,268.554 245.541,268.514 245.434,268.514C245.327,268.514 245.229,268.55 245.14,268.621C244.658,269.121 244.024,269.683 243.239,270.308C241.776,271.45 240.714,272.021 240.054,272.021C239.608,272.021 239.385,271.789 239.385,271.325C239.385,270.861 239.59,270.129 240.001,269.13C240.108,268.844 240.233,268.568 240.375,268.3C243.159,267.783 244.551,266.667 244.551,264.954C244.551,264.562 244.422,264.196 244.163,263.857C243.904,263.518 243.516,263.295 242.998,263.188C242.481,263.081 241.888,263.281 241.218,263.79C240.549,264.298 239.635,265.864 238.475,268.487C237.886,269.951 237.592,271.057 237.592,271.807C237.592,272.074 237.627,272.297 237.699,272.476C237.931,272.975 238.341,273.225 238.93,273.225ZM240.911,267.363C242.053,265.49 242.936,264.553 243.561,264.553C243.739,264.553 243.828,264.678 243.828,264.927C243.828,265.249 243.61,265.659 243.172,266.159C242.735,266.658 241.981,267.06 240.911,267.363Z" style="fill:white;fill-rule:nonzero;"/>
        <path d="M249.476,277.909C249.797,277.874 250.288,277.695 250.948,277.374C252.875,276.464 255.133,273.627 257.72,268.862C257.756,268.791 257.765,268.711 257.747,268.621C257.711,268.354 257.56,268.238 257.292,268.273C257.149,268.291 257.042,268.372 256.971,268.514C255.472,271.173 254.08,273.243 252.795,274.724C251.742,275.866 250.877,276.482 250.199,276.571C250.145,276.571 249.931,276.567 249.556,276.558C249.182,276.549 248.851,276.116 248.566,275.26C248.441,274.92 248.352,274.546 248.298,274.135C248.227,273.529 248.236,272.859 248.325,272.128C251.091,268.702 252.403,266.409 252.26,265.249C252.188,264.678 251.876,264.419 251.323,264.472C251.18,264.49 250.872,264.597 250.399,264.794C249.927,264.99 249.293,265.641 248.499,266.748C247.705,267.854 247.121,269.344 246.746,271.218C246.657,271.807 246.612,272.387 246.612,272.958C246.255,273.368 245.916,273.734 245.595,274.055L246.318,271.539L247.067,268.648C249.637,265.311 251.707,261.546 253.277,257.352C254.812,253.284 255.436,250.09 255.151,247.77C255.044,246.806 254.749,246.217 254.267,246.003C254.142,245.95 254.009,245.932 253.866,245.95C253.152,246.039 252.295,247.11 251.296,249.162C250.118,251.963 248.976,255.318 247.87,259.226C246.853,262.849 245.8,266.819 244.712,271.137C243.98,273.814 243.632,275.277 243.668,275.527L243.668,275.554C243.793,276.054 243.998,276.286 244.283,276.25L244.524,276.223C244.667,276.205 244.881,276.045 245.167,275.741L246.639,274.082L246.665,274.349C246.987,276.919 247.924,278.106 249.476,277.909ZM247.602,266.534C249.422,259.217 251.091,253.739 252.608,250.099C253.232,248.689 253.732,247.966 254.107,247.931C254.267,247.913 254.365,248.082 254.401,248.439C254.455,248.796 254.446,249.34 254.374,250.072C254.178,251.981 253.562,254.301 252.527,257.031C251.243,260.422 249.601,263.589 247.602,266.534ZM248.619,270.415C249.083,268.577 249.985,267.167 251.323,266.186C250.859,267.203 249.958,268.612 248.619,270.415Z" style="fill:white;fill-rule:nonzero;"/>
    </g>
</svg>
