<?xml version="1.0" encoding="UTF-8" standalone="no"?>
<!DOCTYPE svg PUBLIC "-//W3C//DTD SVG 1.1//EN" "http://www.w3.org/Graphics/SVG/1.1/DTD/svg11.dtd">
<svg width="100%" height="100%" viewBox="0 0 800 600" version="1.1" xmlns="http://www.w3.org/2000/svg" xmlns:xlink="http://www.w3.org/1999/xlink" xml:space="preserve" xmlns:serif="http://www.serif.com/" style="fill-rule:evenodd;clip-rule:evenodd;stroke-linejoin:round;stroke-miterlimit:2;">
    <g transform="matrix(1.66952,0,0,1.82909,-106.587,-221.34)">
        <path d="M223.239,416L223.239,376.687L336.613,236.663L236.049,236.663L236.049,200.147L394.037,200.147L394.037,234.012L275.804,379.632L398.601,379.632L398.601,416L223.239,416Z" style="fill:rgb(79,27,220);fill-rule:nonzero;"/>
    </g>
    <g transform="matrix(2.18015,0,0,2.22659,-323.936,-341.694)">
        <path d="M234.577,310.871C234.577,275.043 244.196,246.994 263.436,226.724C282.675,206.454 307.509,196.319 337.939,196.319C357.865,196.319 375.828,201.08 391.828,210.601C407.828,220.123 420.025,233.399 428.417,250.429C436.81,267.46 441.006,286.773 441.006,308.368C441.006,330.258 436.589,349.84 427.755,367.117C418.92,384.393 406.405,397.472 390.209,406.356C374.012,415.239 356.54,419.681 337.791,419.681C317.472,419.681 299.313,414.773 283.313,404.957C267.313,395.141 255.19,381.742 246.945,364.761C238.699,347.779 234.577,329.816 234.577,310.871ZM264.025,311.313C264.025,337.325 271.018,357.816 285.006,372.785C298.994,387.755 316.54,395.239 337.644,395.239C359.141,395.239 376.834,387.681 390.724,372.564C404.613,357.448 411.558,336 411.558,308.221C411.558,290.65 408.589,275.313 402.65,262.209C396.712,249.104 388.025,238.945 376.589,231.73C365.153,224.515 352.319,220.908 338.086,220.908C317.865,220.908 300.466,227.853 285.89,241.742C271.313,255.632 264.025,278.822 264.025,311.313ZM295.975,186.896L295.975,156.712L323.656,156.712L323.656,186.896L295.975,186.896ZM350.896,186.896L350.896,156.712L378.577,156.712L378.577,186.896L350.896,186.896Z" style="fill:rgb(34,31,31);fill-rule:nonzero;"/>
    </g>
</svg>
